<svg width="58" height="64" viewBox="0 0 58 64" fill="none" xmlns="http://www.w3.org/2000/svg">
	<path d="M57.75 37.9749C57.75 34.2979 55.9681 30.959 53.0078 28.9236C54.3516 27.2294 55.1 25.1169 55.1 22.9251C55.1 19.5429 53.3068 16.4089 50.4539 14.6734C50.551 14.182 50.6 13.6811 50.6 13.175C50.6 8.92925 47.1459 5.475 42.9 5.475C42.3708 5.475 41.8503 5.52762 41.3416 5.63237C40.7655 2.434 37.9618 0 34.6 0C32.2886 0 30.2411 1.1505 29 2.909C27.7589 1.1505 25.7114 0 23.4 0C20.0381 0 17.2341 2.43462 16.6583 5.63312C16.4404 5.58837 16.2202 5.55275 15.9982 5.527C15.3121 5.44712 14.6919 5.93825 14.612 6.624C14.5321 7.30963 15.0234 7.93025 15.709 8.01013C16.2471 8.07288 16.7693 8.219 17.2611 8.44425C17.2664 8.44675 17.2711 8.44975 17.2764 8.45225C18.2581 8.90475 19.0629 9.63863 19.6033 10.5747C19.8349 10.9757 20.255 11.2 20.687 11.2C20.899 11.2 21.114 11.1459 21.3109 11.0323C21.9088 10.6871 22.1136 9.92262 21.7685 9.32475C21.108 8.18087 20.1807 7.2415 19.0599 6.57137C19.204 4.30237 21.095 2.5 23.4 2.5C25.7986 2.5 27.75 4.45138 27.75 6.85V32.3669C25.6472 32.0964 23.7029 31.1478 22.1791 29.624C21.691 29.1361 20.8995 29.136 20.4114 29.624C19.9231 30.1121 19.9231 30.9036 20.4114 31.3919C22.4083 33.3887 24.978 34.6042 27.75 34.8857V55.425C27.75 58.7747 25.0247 61.5 21.675 61.5C19.365 61.5 17.3009 60.1865 16.2782 58.2142C16.9772 58.1831 17.6715 58.0774 18.3476 57.8961C19.0144 57.7174 19.4101 57.0319 19.2314 56.3651C19.0525 55.6982 18.3671 55.3022 17.7003 55.4814C16.7241 55.743 15.6895 55.7943 14.6941 55.631C14.6909 55.6305 14.6877 55.6304 14.6845 55.6299C11.2494 55.0675 8.7495 52.1525 8.70212 48.6753C9.53362 48.8735 10.3856 48.975 11.2499 48.975C12.2104 48.975 13.1683 48.8489 14.0968 48.6001C14.7636 48.4215 15.1594 47.7361 14.9807 47.0694C14.8021 46.4025 14.117 46.0065 13.4499 46.1854C12.7321 46.3775 11.992 46.475 11.2498 46.475C10.1529 46.475 9.081 46.2665 8.06388 45.8554C8.0555 45.852 8.04688 45.8498 8.0385 45.8466C4.82525 44.5343 2.75 41.4478 2.75 37.9749C2.75 34.7079 4.57088 31.7862 7.5035 30.3436C7.51075 30.3403 7.51813 30.338 7.52538 30.3345C8.01338 30.0966 8.52625 29.9047 9.04988 29.7645C9.71675 29.5859 10.1125 28.9006 9.934 28.2337C9.7555 27.5669 9.06975 27.1707 8.40312 27.3498C8.01462 27.4539 7.6315 27.5821 7.25562 27.7286C6.06862 26.4195 5.4 24.7076 5.4 22.925C5.4 20.5756 6.56838 18.388 8.45638 17.0639C9.12725 18.2095 10.0864 19.1715 11.2501 19.8433C11.447 19.9569 11.6619 20.011 11.874 20.011C12.306 20.011 12.7261 19.7867 12.9576 19.3857C13.3029 18.7879 13.098 18.0235 12.5001 17.6782C11.4225 17.056 10.6028 16.0666 10.1919 14.8923C10.1901 14.8871 10.1876 14.8825 10.1859 14.8774C10.0634 14.5236 9.97888 14.156 9.9355 13.7843C9.8555 13.0986 9.2345 12.6084 8.54912 12.6876C7.86337 12.7676 7.37238 13.3883 7.45238 14.0741C7.47588 14.2748 7.50725 14.4749 7.5465 14.6733C4.6935 16.4088 2.9 19.5429 2.9 22.925C2.9 25.1167 3.64825 27.2294 4.99225 28.9235C2.03187 30.959 0.25 34.2979 0.25 37.9749C0.25 42.1513 2.5685 45.8961 6.23375 47.7675C6.21125 48.0363 6.2 48.3061 6.2 48.5751C6.2 50.8798 7.02562 53.1106 8.525 54.8573C9.8245 56.3709 11.558 57.4422 13.4719 57.9285C14.5582 61.4923 17.883 64 21.675 64C24.7734 64 27.493 62.3484 29 59.8792C30.507 62.3484 33.2267 64 36.325 64C40.1171 64 43.4419 61.4923 44.5281 57.9285C46.442 57.4421 48.1755 56.3709 49.475 54.8573C50.9744 53.1106 51.8 50.8798 51.8 48.5751C51.8 48.3061 51.7887 48.0363 51.7663 47.7675C55.4314 45.8961 57.75 42.1513 57.75 37.9749ZM49.936 45.8573C49.3844 46.0804 49.0666 46.6616 49.1764 47.2464C49.2584 47.6835 49.3 48.1305 49.3 48.575C49.3 52.0991 46.7798 55.0667 43.3076 55.6312C42.7929 55.7149 42.3843 56.1092 42.2822 56.6206C41.7185 59.448 39.2131 61.5 36.325 61.5C32.9753 61.5 30.25 58.7747 30.25 55.425V50.254H31.8636L33.1166 51.5071C32.4528 52.9007 32.6963 54.6223 33.8485 55.7745C34.5796 56.5056 35.5399 56.871 36.5001 56.871C37.4604 56.871 38.4207 56.5055 39.1517 55.7745C40.6139 54.3124 40.6139 51.9334 39.1517 50.4711C37.9995 49.3189 36.278 49.0754 34.8844 49.7393L33.2653 48.12C33.0309 47.8856 32.7129 47.7539 32.3814 47.7539H30.25V43.6994H34.3595C34.5397 44.2115 34.834 44.6921 35.2429 45.101C35.974 45.8321 36.9342 46.1975 37.8945 46.1975C38.8548 46.1975 39.8151 45.8319 40.5461 45.101C42.0081 43.6389 42.0081 41.2599 40.5461 39.7976C39.084 38.3356 36.7049 38.3356 35.2427 39.7976C34.8339 40.2065 34.5395 40.6871 34.3594 41.1994H30.25V34.9491H42.6335L43.8849 36.2006C43.6463 36.6993 43.52 37.2487 43.52 37.8179C43.52 38.8196 43.9101 39.7614 44.6184 40.4696C45.3495 41.2006 46.3097 41.566 47.27 41.566C48.2303 41.566 49.1906 41.2005 49.9217 40.4696C50.63 39.7612 51.02 38.8196 51.02 37.8179C51.02 36.8161 50.63 35.8745 49.9217 35.1662C48.7695 34.014 47.048 33.7706 45.6544 34.4344L44.0353 32.8151C43.8009 32.5807 43.4829 32.449 43.1514 32.449H30.25V28.5443H40.0976C40.4291 28.5443 40.7471 28.4125 40.9815 28.1781L42.599 26.5606C43.0976 26.7992 43.6472 26.9256 44.2164 26.9256C45.2181 26.9256 46.1598 26.5355 46.868 25.8272C47.5762 25.119 47.9664 24.1772 47.9664 23.1755C47.9664 22.1738 47.5762 21.2321 46.868 20.5239C46.1598 19.8156 45.218 19.4255 44.2164 19.4255C43.2147 19.4255 42.273 19.8156 41.5648 20.5239C40.8564 21.2321 40.4664 22.1738 40.4664 23.1755C40.4664 23.7446 40.5926 24.2943 40.8312 24.7929L39.5799 26.0444H30.25V20.2006H33.9101C34.2416 20.2006 34.5596 20.0689 34.794 19.8345L36.4115 18.2169C36.9101 18.4555 37.4596 18.5818 38.0288 18.5818C39.0305 18.5818 39.9721 18.1916 40.6804 17.4834C41.3887 16.7751 41.7788 15.8335 41.7788 14.8317C41.7788 13.83 41.3886 12.8883 40.6804 12.18C39.9721 11.4718 39.0304 11.0816 38.0288 11.0816C37.0271 11.0816 36.0854 11.4718 35.3771 12.18C34.6689 12.8883 34.2788 13.83 34.2788 14.8317C34.2788 15.4009 34.405 15.9505 34.6436 16.449L33.3923 17.7005H30.25V6.85C30.25 4.4515 32.2014 2.5 34.6 2.5C36.9986 2.5 38.95 4.45138 38.95 6.85V7.31612C38.95 7.74237 39.1673 8.13938 39.5264 8.36913C39.8853 8.59888 40.3368 8.62963 40.7239 8.451C41.4081 8.13525 42.1404 7.975 42.9 7.975C45.7673 7.975 48.1 10.3076 48.1 13.175C48.1 13.7638 48.0023 14.3418 47.8095 14.8929C47.5974 15.4994 47.8795 16.1679 48.462 16.4389C50.9758 17.6085 52.6 20.1546 52.6 22.9251C52.6 24.9674 51.7227 26.9171 50.1934 28.2744C49.8815 28.5513 49.7281 28.9653 49.7845 29.3785C49.841 29.7917 50.0998 30.1495 50.4745 30.3325C53.4201 31.7712 55.25 34.6997 55.25 37.975C55.25 41.4569 53.1641 44.5509 49.936 45.8573ZM36.5001 51.8734C36.8203 51.8734 37.1404 51.9954 37.384 52.239C37.8714 52.7262 37.8714 53.5194 37.384 54.0067C36.8967 54.494 36.1036 54.494 35.6162 54.0067C35.1289 53.5195 35.1289 52.7264 35.6162 52.239C35.86 51.9954 36.1801 51.8734 36.5001 51.8734ZM37.0106 41.5656C37.4981 41.0781 38.2911 41.0784 38.7785 41.5656C39.2659 42.0529 39.2659 42.846 38.7785 43.3334C38.2912 43.8207 37.498 43.8206 37.0107 43.3334C36.5234 42.8461 36.5234 42.053 37.0106 41.5656ZM46.3861 36.9344C46.6297 36.6906 46.9499 36.5687 47.27 36.5687C47.5901 36.5687 47.9102 36.6908 48.154 36.9344C48.39 37.1705 48.52 37.4843 48.52 37.8181C48.52 38.1521 48.39 38.466 48.154 38.702C47.6667 39.1891 46.8736 39.1894 46.3861 38.702C46.15 38.4659 46.02 38.1521 46.02 37.8181C46.02 37.4843 46.15 37.1704 46.3861 36.9344ZM43.3325 24.0597C43.0964 23.8236 42.9664 23.5099 42.9664 23.1759C42.9664 22.842 43.0964 22.5281 43.3325 22.2921C43.5686 22.056 43.8825 21.926 44.2164 21.926C44.5502 21.926 44.8641 22.056 45.1003 22.2921C45.3364 22.5283 45.4664 22.842 45.4664 23.1759C45.4664 23.5099 45.3364 23.8237 45.1003 24.0597C44.8641 24.2959 44.5504 24.4259 44.2164 24.4259C43.8825 24.4257 43.5686 24.2957 43.3325 24.0597ZM37.145 15.7159C37.1449 15.7159 37.1449 15.7159 37.145 15.7159C36.9089 15.4797 36.7789 15.166 36.7789 14.8321C36.7789 14.4981 36.9089 14.1842 37.145 13.9482C37.3811 13.7121 37.695 13.5821 38.0289 13.5821C38.3627 13.5821 38.6766 13.7121 38.9128 13.9482C39.1489 14.1844 39.2789 14.4981 39.2789 14.8321C39.2789 15.166 39.1489 15.4799 38.9128 15.7159C38.6766 15.952 38.3629 16.082 38.0289 16.082C37.695 16.0819 37.3811 15.9519 37.145 15.7159Z" fill="#9E9E9E"/>
</svg>