<svg width="64" height="76" viewBox="0 0 64 76" fill="none" xmlns="http://www.w3.org/2000/svg">
	<path d="M33.3339 14.4889C32.8096 13.3872 31.1907 13.3875 30.6666 14.4889L14.3846 47.8047C14.2201 48.1413 14.189 48.5277 14.2975 48.8863L19.276 65.3448C17.1777 66.1192 15.6775 68.1393 15.6775 70.5033V74.5152C15.6775 75.335 16.342 75.9996 17.1619 75.9996L46.8387 76C47.2324 76 47.61 75.8436 47.8883 75.5653C48.1667 75.2869 48.3231 74.9093 48.3231 74.5157V70.5037C48.3231 68.1399 46.8229 66.1196 44.7247 65.3453L49.7036 48.8865C49.8121 48.5279 49.7809 48.1415 49.6164 47.8048L33.3339 14.4889ZM32.0005 47.4827C33.2282 47.4827 34.227 48.4815 34.227 49.7093C34.1047 52.6631 29.8956 52.6621 29.7738 49.7093C29.7739 48.4815 30.7727 47.4827 32.0005 47.4827ZM45.3544 73.0313L18.6462 73.0308V70.5033C18.6462 69.1158 19.7699 67.9861 21.1549 67.976C21.1704 67.9761 21.1858 67.9761 21.2013 67.9758L42.7964 67.9763C42.814 67.9767 42.8317 67.9767 42.8494 67.9764C44.2328 67.9885 45.3544 69.1176 45.3544 70.5037V73.0313ZM41.7253 65.0077L22.2755 65.0073L17.3078 48.5847L30.5162 21.558V44.7301C28.3725 45.3703 26.8053 47.3603 26.8053 49.7094C27.0908 56.6018 36.9116 56.5995 37.196 49.7094C37.196 47.3603 35.6288 45.3703 33.4851 44.7301V21.5592L46.6933 48.5852L41.7253 65.0077Z" fill="#9E9E9E"/>
	<path d="M58.7188 0.742182C56.7836 0.742182 55.1327 1.98311 54.5201 3.71091H37.1955V1.48436C37.1955 0.664549 36.531 0 35.7112 0H28.2893C27.4695 0 26.805 0.664549 26.805 1.48436V3.71091H9.48052C7.76015 -0.937524 0.923316 0.175748 0.828613 5.19527C0.923761 10.2155 7.76089 11.3273 9.48038 6.67963H26.805V8.90618C26.805 9.72599 27.4695 10.3905 28.2893 10.3905H35.7112C36.531 10.3905 37.1955 9.72599 37.1955 8.90618V6.67963H54.5201C56.2411 11.3287 63.0772 10.2142 63.1719 5.19527C63.1719 2.73984 61.1742 0.742182 58.7188 0.742182ZM5.2817 6.67963C4.46323 6.67963 3.79734 6.01375 3.79734 5.19527C3.87883 3.22597 6.68487 3.22656 6.76607 5.19527C6.76607 6.01375 6.10033 6.67963 5.2817 6.67963ZM34.2268 7.42182H29.7737V2.96873H34.2268V7.42182ZM58.7188 6.67963C57.9003 6.67963 57.2344 6.01375 57.2344 5.19527C57.3159 3.22597 60.122 3.22656 60.2032 5.19527C60.2032 6.01375 59.5373 6.67963 58.7188 6.67963Z" fill="#9E9E9E"/>
</svg>