<svg width="69" height="70" viewBox="0 0 69 70" fill="none" xmlns="http://www.w3.org/2000/svg">
	<path d="M37.912 68.248H36.912V69.248H37.912V68.248ZM37.912 39.736L36.9714 39.3965L36.912 39.5611V39.736H37.912ZM51.736 1.43199V0.431986H51.0338L50.7954 1.09252L51.736 1.43199ZM66.712 1.43199L67.6637 1.73899L68.0853 0.431986H66.712V1.43199ZM55.192 37.144L54.2403 36.837L53.8187 38.144H55.192V37.144ZM66.712 37.144H67.712V36.144H66.712V37.144ZM66.712 68.248V69.248H67.712V68.248H66.712ZM1.336 68.248H0.336001V69.248H1.336V68.248ZM1.336 39.736L0.395384 39.3965L0.336001 39.5611V39.736H1.336ZM15.16 1.43199V0.431986H14.4578L14.2194 1.09252L15.16 1.43199ZM30.136 1.43199L31.0877 1.73899L31.5093 0.431986H30.136V1.43199ZM18.616 37.144L17.6643 36.837L17.2427 38.144H18.616V37.144ZM30.136 37.144H31.136V36.144H30.136V37.144ZM30.136 68.248V69.248H31.136V68.248H30.136ZM38.912 68.248V39.736H36.912V68.248H38.912ZM38.8526 40.0755L52.6766 1.77146L50.7954 1.09252L36.9714 39.3965L38.8526 40.0755ZM51.736 2.43199H66.712V0.431986H51.736V2.43199ZM65.7603 1.12498L54.2403 36.837L56.1437 37.451L67.6637 1.73899L65.7603 1.12498ZM55.192 38.144H66.712V36.144H55.192V38.144ZM65.712 37.144V68.248H67.712V37.144H65.712ZM66.712 67.248H37.912V69.248H66.712V67.248ZM2.336 68.248V39.736H0.336001V68.248H2.336ZM2.27662 40.0755L16.1006 1.77146L14.2194 1.09252L0.395384 39.3965L2.27662 40.0755ZM15.16 2.43199H30.136V0.431986H15.16V2.43199ZM29.1843 1.12498L17.6643 36.837L19.5677 37.451L31.0877 1.73899L29.1843 1.12498ZM18.616 38.144H30.136V36.144H18.616V38.144ZM29.136 37.144V68.248H31.136V37.144H29.136ZM30.136 67.248H1.336V69.248H30.136V67.248Z" fill="#3D3D3D"/>
</svg>