<svg width="67" height="54" viewBox="0 0 67 54" fill="none" xmlns="http://www.w3.org/2000/svg">
	<path d="M30.2096 38.5591C30.2096 47.5825 23.9128 53.4943 15.4658 53.4943C6.86521 53.4943 0.568359 47.4269 0.568359 38.5591C0.568359 34.5142 1.18269 31.5583 4.71506 23.0016L13.6228 0.598877H28.8274L22.0698 25.3353C27.138 27.5133 30.2096 32.1806 30.2096 38.5591V38.5591ZM66.4549 38.5591C66.4549 47.5825 60.158 53.4943 51.7111 53.4943C43.1105 53.4943 36.8136 47.4269 36.8136 38.5591C36.8136 34.5142 37.428 31.5583 40.9603 23.0016L49.8681 0.598877H65.0727L58.3151 25.3353C63.3833 27.5133 66.4549 32.1806 66.4549 38.5591V38.5591Z" stroke="#646464" stroke-miterlimit="10"/>
</svg>