<svg width="38" height="81" viewBox="0 0 38 81" fill="none" xmlns="http://www.w3.org/2000/svg">
<path d="M30.1107 80.0512L9.77254 80C3.31762 80 0.0901636 77.9679 0.0901636 73.9037C0.0901636 69.3272 3.69331 67.0389 10.8996 67.0389C11.5826 67.0389 12.334 67.056 13.1537 67.0902V21.6496C10.1824 23.6988 8.25273 24.7234 7.36475 24.7234C5.45219 24.7234 3.77869 24.0403 2.34426 22.6742C0.943989 21.3081 0.243852 19.7199 0.243852 17.9098C0.243852 16.0314 1.38798 14.1018 3.67623 12.1209L9.46516 7.92008L15.7152 2.89959C18.2766 1.05533 20.7527 0.133199 23.1434 0.133199C26.2172 0.133199 27.7541 1.97746 27.7541 5.66599C27.7541 9.73019 27.5833 15.4508 27.2418 22.8279C26.9003 30.2049 26.7295 40.7411 26.7295 54.4365V66.834H30.1107C32.0915 66.834 33.7479 67.4658 35.0799 68.7295C36.446 69.9932 37.1291 71.5642 37.1291 73.4426C37.1291 75.321 36.446 76.8921 35.0799 78.1557C33.7479 79.4194 32.0915 80.0512 30.1107 80.0512Z" fill="#007EFF"/>
<path d="M30.1107 80.0512L30.1073 81.3627H30.1107V80.0512ZM9.77254 80L9.77584 78.6885H9.77254V80ZM13.1537 67.0902L13.0991 68.4005L14.4652 68.4574V67.0902H13.1537ZM13.1537 21.6496H14.4652V19.152L12.4091 20.57L13.1537 21.6496ZM2.34426 22.6742L1.42843 23.6129L1.43408 23.6184L1.4398 23.6239L2.34426 22.6742ZM3.67623 12.1209L2.90597 11.0595L2.86042 11.0925L2.81787 11.1293L3.67623 12.1209ZM9.46516 7.92008L10.2354 8.98153L10.2614 8.96266L10.2865 8.94254L9.46516 7.92008ZM15.7152 2.89959L14.9489 1.83529L14.9208 1.85549L14.8938 1.87714L15.7152 2.89959ZM26.7295 66.834H25.418V68.1455H26.7295V66.834ZM35.0799 68.7295L34.1773 69.6809L34.1833 69.6866L34.1894 69.6923L35.0799 68.7295ZM35.0799 78.1557L34.1894 77.193L34.1833 77.1986L34.1773 77.2043L35.0799 78.1557ZM30.114 78.7398L9.77584 78.6885L9.76924 81.3115L30.1073 81.3627L30.114 78.7398ZM9.77254 78.6885C6.64034 78.6885 4.51464 78.1879 3.20953 77.3661C2.00631 76.6085 1.40164 75.5207 1.40164 73.9037H-1.22131C-1.22131 76.3508 -0.212257 78.3112 1.81199 79.5857C3.73433 80.7961 6.44982 81.3115 9.77254 81.3115V78.6885ZM1.40164 73.9037C1.40164 72.0254 2.10459 70.7456 3.4956 69.8622C4.98745 68.9148 7.39301 68.3504 10.8996 68.3504V65.7275C7.19988 65.7275 4.20073 66.3072 2.08944 67.648C-0.122689 69.0529 -1.22131 71.2055 -1.22131 73.9037H1.40164ZM10.8996 68.3504C11.5613 68.3504 12.2941 68.367 13.0991 68.4005L13.2083 65.7798C12.3739 65.7451 11.604 65.7275 10.8996 65.7275V68.3504ZM14.4652 67.0902V21.6496H11.8422V67.0902H14.4652ZM12.4091 20.57C10.942 21.5817 9.76379 22.3183 8.86293 22.7966C8.41237 23.0358 8.05339 23.1985 7.77786 23.2987C7.48451 23.4054 7.36413 23.4119 7.36475 23.4119V26.0348C7.80937 26.0348 8.26318 25.9132 8.67424 25.7638C9.10312 25.6078 9.57875 25.3863 10.093 25.1132C11.1218 24.567 12.394 23.7666 13.8983 22.7292L12.4091 20.57ZM7.36475 23.4119C5.80204 23.4119 4.44895 22.8676 3.24873 21.7245L1.4398 23.6239C3.10843 25.213 5.10233 26.0348 7.36475 26.0348V23.4119ZM3.2601 21.7355C2.09016 20.5941 1.55533 19.3361 1.55533 17.9098H-1.06762C-1.06762 20.1038 -0.202186 22.0221 1.42843 23.6129L3.2601 21.7355ZM1.55533 17.9098C1.55533 16.5927 2.36146 14.9937 4.53459 13.1125L2.81787 11.1293C0.414495 13.2099 -1.06762 15.4702 -1.06762 17.9098H1.55533ZM4.44648 13.1824L10.2354 8.98153L8.69491 6.85863L2.90597 11.0595L4.44648 13.1824ZM10.2865 8.94254L16.5365 3.92205L14.8938 1.87714L8.64385 6.89763L10.2865 8.94254ZM16.4815 3.9639C18.8906 2.2293 21.1038 1.44467 23.1434 1.44467V-1.17828C20.4016 -1.17828 17.6626 -0.118639 14.9489 1.83529L16.4815 3.9639ZM23.1434 1.44467C24.4089 1.44467 25.1414 1.8129 25.5939 2.35598C26.0847 2.94486 26.4426 3.97155 26.4426 5.66599H29.0656C29.0656 3.6719 28.6551 1.93219 27.6089 0.67681C26.5246 -0.624371 24.9517 -1.17828 23.1434 -1.17828V1.44467ZM26.4426 5.66599C26.4426 9.69993 26.2729 15.3969 25.9317 22.7672L28.5519 22.8885C28.8937 15.5047 29.0656 9.76045 29.0656 5.66599H26.4426ZM25.9317 22.7672C25.5888 30.1748 25.418 40.7348 25.418 54.4365H28.041C28.041 40.7474 28.2118 30.2351 28.5519 22.8885L25.9317 22.7672ZM25.418 54.4365V66.834H28.041V54.4365H25.418ZM26.7295 68.1455H30.1107V65.5225H26.7295V68.1455ZM30.1107 68.1455C31.7847 68.1455 33.1093 68.6677 34.1773 69.6809L35.9826 67.7781C34.3866 66.264 32.3984 65.5225 30.1107 65.5225V68.1455ZM34.1894 69.6923C35.2843 70.7051 35.8176 71.9259 35.8176 73.4426H38.4406C38.4406 71.2026 37.6078 69.2813 35.9705 67.7668L34.1894 69.6923ZM35.8176 73.4426C35.8176 74.9594 35.2843 76.1802 34.1894 77.193L35.9705 79.1185C37.6078 77.604 38.4406 75.6827 38.4406 73.4426H35.8176ZM34.1773 77.2043C33.1093 78.2176 31.7847 78.7398 30.1107 78.7398V81.3627C32.3984 81.3627 34.3866 80.6212 35.9826 79.1072L34.1773 77.2043Z" fill="#004FA0"/>
</svg>
