<svg width="53" height="80" viewBox="0 0 53 80" fill="none" xmlns="http://www.w3.org/2000/svg">
<path d="M45.6393 79.1025C44.7855 79.1025 43.4536 78.9658 41.6434 78.6926C39.8675 78.3852 38.5867 78.2316 37.8012 78.2316L22.7398 78.1803C21.4419 78.1803 19.4781 78.3511 16.8484 78.6926C14.2186 79 12.2377 79.1537 10.9057 79.1537C10.5301 79.1537 9.98361 79.0854 9.26639 78.9488C8.54918 78.8122 8.00273 78.7439 7.62705 78.7439C4.55328 78.7439 2.46995 77.4973 1.37705 75.0041C0.693989 73.4331 0.352459 71.0082 0.352459 67.7295C0.352459 61.3429 1.76981 55.998 4.60451 51.6947C6.7903 48.3818 10.3251 45.069 15.209 41.7561C19.8197 38.7165 24.4133 35.694 28.9898 32.6885C34.3859 28.7609 37.084 24.304 37.084 19.3176C37.084 18.0198 36.0082 16.7391 33.8566 15.4754C31.7049 14.1776 29.6045 13.5287 27.5553 13.5287C23.9351 13.5287 20.0929 15.151 16.0287 18.3955C11.9986 21.6059 9.23224 23.2111 7.72951 23.2111C5.9194 23.2111 4.33128 22.7671 2.96516 21.8791C1.25751 20.7862 0.403688 19.2664 0.403688 17.3197C0.403688 15.2363 1.25751 13.4433 2.96516 11.9406C7.09768 8.2862 10.7008 5.62227 13.7746 3.94877C18.2145 1.52391 22.8081 0.311478 27.5553 0.311478C33.4638 0.311478 38.7917 1.86544 43.5389 4.97336C48.9693 8.52528 51.6844 13.1701 51.6844 18.9078C51.6844 24.7138 50.3525 29.6489 47.6885 33.7131C45.6052 36.9577 42.3094 40.1168 37.8012 43.1906C33.5321 45.8887 29.263 48.5697 24.9939 51.2336C18.5048 55.4686 15.0212 60.3012 14.543 65.7316C16.4214 65.4925 19.1878 65.2193 22.8422 64.9119C30.1168 64.5362 35.3251 64.3484 38.4672 64.3484C41.4044 64.3484 44.3074 64.9802 47.1762 66.2439C50.7281 67.8149 52.5041 69.8299 52.5041 72.2889C52.5041 74.0649 51.8723 75.6189 50.6086 76.9508C49.2766 78.3852 47.6202 79.1025 45.6393 79.1025Z" fill="#6FCD00"/>
<path d="M41.6434 78.6926L41.4198 79.9849L41.4337 79.9873L41.4477 79.9894L41.6434 78.6926ZM37.8012 78.2316L37.7968 79.543H37.8012V78.2316ZM22.7398 78.1803L22.7442 76.8689H22.7398V78.1803ZM16.8484 78.6926L17.0006 79.9952L17.0089 79.9943L17.0173 79.9932L16.8484 78.6926ZM1.37705 75.0041L0.174329 75.527L0.175909 75.5306L1.37705 75.0041ZM4.60451 51.6947L3.50983 50.9724L3.5093 50.9732L4.60451 51.6947ZM15.209 41.7561L14.4872 40.6612L14.48 40.666L14.4728 40.6708L15.209 41.7561ZM28.9898 32.6885L29.7097 33.7847L29.736 33.7674L29.7615 33.7489L28.9898 32.6885ZM33.8566 15.4754L33.1792 16.5984L33.1858 16.6024L33.1924 16.6063L33.8566 15.4754ZM16.0287 18.3955L16.8458 19.4213L16.8469 19.4204L16.0287 18.3955ZM2.96516 21.8791L3.67992 20.7795L3.67212 20.7745L2.96516 21.8791ZM2.96516 11.9406L3.83156 12.9251L3.83394 12.923L2.96516 11.9406ZM13.7746 3.94877L14.4017 5.1006L14.4032 5.09977L13.7746 3.94877ZM43.5389 4.97336L42.8206 6.07061L42.821 6.07091L43.5389 4.97336ZM47.6885 33.7131L46.5916 32.9941L46.585 33.0045L47.6885 33.7131ZM37.8012 43.1906L38.5019 44.2992L38.5212 44.287L38.54 44.2742L37.8012 43.1906ZM24.9939 51.2336L24.2996 50.121L24.2883 50.128L24.2771 50.1353L24.9939 51.2336ZM14.543 65.7316L13.2366 65.6165L13.0938 67.2381L14.7086 67.0325L14.543 65.7316ZM22.8422 64.9119L22.7746 63.6022L22.7534 63.6032L22.7323 63.605L22.8422 64.9119ZM47.1762 66.2439L47.7067 65.0445L47.7049 65.0436L47.1762 66.2439ZM50.6086 76.9508L49.6571 76.0481L49.6476 76.0584L50.6086 76.9508ZM45.6393 77.791C44.8902 77.791 43.6404 77.6677 41.8392 77.3958L41.4477 79.9894C43.2667 80.264 44.6808 80.4139 45.6393 80.4139V77.791ZM41.8671 77.4004C40.0871 77.0923 38.7093 76.9201 37.8012 76.9201V79.543C38.4642 79.543 39.6479 79.6782 41.4198 79.9849L41.8671 77.4004ZM37.8057 76.9201L22.7442 76.8689L22.7353 79.4918L37.7968 79.543L37.8057 76.9201ZM22.7398 76.8689C21.3533 76.8689 19.3201 77.0491 16.6795 77.3921L17.0173 79.9932C19.6362 79.6531 21.5306 79.4918 22.7398 79.4918V76.8689ZM16.6961 77.39C14.0778 77.696 12.1587 77.8422 10.9057 77.8422V80.4652C12.3167 80.4652 14.3593 80.304 17.0006 79.9952L16.6961 77.39ZM10.9057 77.8422C10.657 77.8422 10.2086 77.7932 9.51179 77.6605L9.021 80.2371C9.75857 80.3776 10.4031 80.4652 10.9057 80.4652V77.8422ZM9.51179 77.6605C8.77422 77.52 8.12968 77.4324 7.62705 77.4324V80.0553C7.87578 80.0553 8.32414 80.1043 9.021 80.2371L9.51179 77.6605ZM7.62705 77.4324C6.26504 77.4324 5.22325 77.1566 4.43261 76.6835C3.65275 76.2169 3.02906 75.5061 2.57819 74.4776L0.175909 75.5306C0.817934 76.9952 1.78235 78.1544 3.08583 78.9343C4.37853 79.7078 5.91529 80.0553 7.62705 80.0553V77.4324ZM2.57976 74.4812C2.00754 73.1651 1.66393 70.9627 1.66393 67.7295H-0.959017C-0.959017 71.0536 -0.619559 73.7011 0.174334 75.527L2.57976 74.4812ZM1.66393 67.7295C1.66393 61.5378 3.03654 56.459 5.69972 52.4161L3.5093 50.9732C0.503078 55.5369 -0.959017 61.148 -0.959017 67.7295H1.66393ZM5.69918 52.4169C7.75605 49.2995 11.1406 46.1006 15.9452 42.8415L14.4728 40.6708C9.50966 44.0374 5.82456 47.4642 3.50983 50.9724L5.69918 52.4169ZM15.9309 42.8511C20.5409 39.8119 25.1338 36.7898 29.7097 33.7847L28.2698 31.5923C23.6927 34.5982 19.0985 37.6212 14.4872 40.6612L15.9309 42.8511ZM29.7615 33.7489C35.3718 29.6654 38.3955 24.8571 38.3955 19.3176H35.7725C35.7725 23.7508 33.4 27.8564 28.218 31.6282L29.7615 33.7489ZM38.3955 19.3176C38.3955 17.2526 36.716 15.6339 34.5207 14.3445L33.1924 16.6063C35.3003 17.8443 35.7725 18.7871 35.7725 19.3176H38.3955ZM34.5339 14.3524C32.224 12.9591 29.8919 12.2172 27.5553 12.2172V14.8402C29.3171 14.8402 31.1858 15.3961 33.1792 16.5984L34.5339 14.3524ZM27.5553 12.2172C23.5321 12.2172 19.4083 14.0194 15.2105 17.3706L16.8469 19.4204C20.7775 16.2825 24.3381 14.8402 27.5553 14.8402V12.2172ZM15.2115 17.3697C13.2204 18.9559 11.5777 20.1159 10.2732 20.8728C8.91136 21.663 8.10623 21.8996 7.72951 21.8996V24.5225C8.85552 24.5225 10.1849 23.9565 11.5896 23.1415C13.0514 22.2933 14.8069 21.0455 16.8458 19.4213L15.2115 17.3697ZM7.72951 21.8996C6.14397 21.8996 4.81009 21.5141 3.6799 20.7795L2.25043 22.9787C3.85247 24.02 5.69483 24.5225 7.72951 24.5225V21.8996ZM3.67212 20.7745C2.32228 19.9106 1.71516 18.7973 1.71516 17.3197H-0.907787C-0.907787 19.7355 0.192752 21.6618 2.25821 22.9837L3.67212 20.7745ZM1.71516 17.3197C1.71516 15.6505 2.37763 14.2046 3.83156 12.9251L2.09877 10.956C0.137402 12.682 -0.907787 14.8222 -0.907787 17.3197H1.71516ZM3.83394 12.923C7.92964 9.30121 11.4494 6.70799 14.4017 5.1006L13.1475 2.79695C9.95228 4.53655 6.26572 7.2712 2.09639 10.9581L3.83394 12.923ZM14.4032 5.09977C18.6634 2.77308 23.0421 1.62295 27.5553 1.62295V-0.999998C22.574 -0.999998 17.7656 0.274743 13.146 2.79777L14.4032 5.09977ZM27.5553 1.62295C33.2197 1.62295 38.2959 3.10843 42.8206 6.07061L44.2573 3.87612C39.2874 0.622445 33.7079 -0.999998 27.5553 -0.999998V1.62295ZM42.821 6.07091C47.9379 9.41781 50.3729 13.6766 50.3729 18.9078H52.9959C52.9959 12.6635 50.0006 7.63274 44.2568 3.87582L42.821 6.07091ZM50.3729 18.9078C50.3729 24.5088 49.0903 29.1822 46.5917 32.9942L48.7854 34.4321C51.6147 30.1156 52.9959 24.9188 52.9959 18.9078H50.3729ZM46.585 33.0045C44.6276 36.0528 41.4811 39.0943 37.0624 42.107L38.54 44.2742C43.1378 41.1393 46.5828 37.8625 48.7921 34.4217L46.585 33.0045ZM37.1006 42.0819C32.8336 44.7787 28.5666 47.4584 24.2996 50.121L25.6881 52.3462C29.9594 49.681 34.2306 46.9986 38.5019 44.2992L37.1006 42.0819ZM24.2771 50.1353C17.6002 54.4929 13.7632 59.6363 13.2366 65.6165L15.8495 65.8466C16.2792 60.9662 19.4094 56.4443 25.7106 52.3319L24.2771 50.1353ZM14.7086 67.0325C16.5586 66.7971 19.3026 66.5257 22.9521 66.2188L22.7323 63.605C19.0731 63.9128 16.2843 64.1879 14.3775 64.4306L14.7086 67.0325ZM22.9099 66.2216C30.1834 65.846 35.3621 65.6598 38.4672 65.6598V63.0369C35.2882 63.0369 30.0502 63.2264 22.7746 63.6022L22.9099 66.2216ZM38.4672 65.6598C41.2103 65.6598 43.9339 66.2488 46.6476 67.4441L47.7049 65.0436C44.6808 63.7116 41.5984 63.0369 38.4672 63.0369V65.6598ZM46.6457 67.4432C50.0299 68.9401 51.1926 70.6173 51.1926 72.2889H53.8156C53.8156 69.0425 51.4264 66.6897 47.7067 65.0445L46.6457 67.4432ZM51.1926 72.2889C51.1926 73.7166 50.6983 74.9508 49.6572 76.0482L51.56 77.8535C53.0462 76.2869 53.8156 74.4132 53.8156 72.2889H51.1926ZM49.6476 76.0584C48.5671 77.222 47.2605 77.791 45.6393 77.791V80.4139C47.9799 80.4139 49.9862 79.5485 51.5696 77.8432L49.6476 76.0584Z" fill="#478300"/>
</svg>
