<svg width="53" height="82" viewBox="0 0 53 82" fill="none" xmlns="http://www.w3.org/2000/svg">
<path d="M41.9775 37.5041C49.013 41.4317 52.5307 47.7158 52.5307 56.3566C52.5307 63.3238 49.9522 69.2322 44.7951 74.082C39.638 78.9317 33.3709 81.3566 25.9939 81.3566C20.4952 81.3566 15.543 80.2466 11.1373 78.0266C6.0485 75.431 2.61612 71.7425 0.840164 66.9611C0.56694 66.2439 0.430328 65.4754 0.430328 64.6557C0.430328 62.7432 1.19877 61.1551 2.73566 59.8914C4.17008 58.7302 5.80943 58.1496 7.65369 58.1496C9.80533 58.1496 11.5301 59.0034 12.8279 60.7111C15.0137 63.6482 16.2773 65.2534 16.6189 65.5266C18.7363 67.2343 21.8613 68.0881 25.9939 68.0881C29.2384 68.0881 32.0731 67.1148 34.4979 65.168C36.957 63.2213 38.1865 60.8818 38.1865 58.1496C38.1865 49.6455 32.4658 44.8299 21.0246 43.7029C16.0041 43.2247 13.4939 41.1243 13.4939 37.4016C13.4939 34.5669 15.4406 32.5007 19.334 31.2029C23.0225 30.3832 26.694 29.5464 30.3484 28.6926C32.6708 27.9754 34.4126 27.0362 35.5738 25.875C36.735 24.7138 37.3326 23.3306 37.3668 21.7254C37.5034 16.6366 33.5246 14.0922 25.4303 14.0922C22.7664 14.0922 19.8463 15.1168 16.6701 17.166C13.4939 19.181 11.3251 20.1885 10.1639 20.1885C8.21721 20.1885 6.56079 19.4884 5.19467 18.0881C3.82855 16.6878 3.14549 15.0997 3.14549 13.3238C3.14549 10.4208 6.01434 7.53484 11.752 4.66599C16.875 2.10451 21.0417 0.823773 24.252 0.823773C32.0048 0.823773 38.2377 2.49727 42.9508 5.84426C48.1079 9.53279 50.6865 14.7924 50.6865 21.623C50.6865 25.3798 49.9522 28.5902 48.4836 31.2541C47.0492 33.8839 44.8805 35.9672 41.9775 37.5041Z" fill="#BD66FF"/>
<path d="M41.9775 37.5041L41.3638 36.345L39.2322 37.4735L41.3382 38.6492L41.9775 37.5041ZM44.7951 74.082L43.8966 73.1266L44.7951 74.082ZM11.1373 78.0266L10.5414 79.1949L10.5472 79.1978L11.1373 78.0266ZM0.840164 66.9611L2.06962 66.5044L2.06572 66.4942L0.840164 66.9611ZM2.73566 59.8914L1.91045 58.872L1.90273 58.8784L2.73566 59.8914ZM12.8279 60.7111L13.88 59.9281L13.872 59.9175L12.8279 60.7111ZM16.6189 65.5266L17.4421 64.5058L17.4381 64.5025L16.6189 65.5266ZM34.498 65.168L33.6839 64.1398L33.6769 64.1453L34.498 65.168ZM21.0246 43.7029L21.1532 42.3977L21.1489 42.3973L21.0246 43.7029ZM19.334 31.2029L19.0495 29.9226L18.9835 29.9373L18.9193 29.9587L19.334 31.2029ZM30.3484 28.6926L30.6467 29.9697L30.6915 29.9593L30.7353 29.9457L30.3484 28.6926ZM35.5738 25.875L36.5011 26.8024L35.5738 25.875ZM37.3668 21.7254L36.0558 21.6902L36.0556 21.6975L37.3668 21.7254ZM16.6701 17.166L17.3727 18.2734L17.3811 18.268L16.6701 17.166ZM42.9508 5.84426L43.7138 4.77754L43.7102 4.77498L42.9508 5.84426ZM48.4836 31.2541L47.3351 30.6209L47.3323 30.6261L48.4836 31.2541ZM41.3382 38.6492C47.923 42.3252 51.2193 48.1489 51.2193 56.3566H53.8422C53.8422 47.2828 50.1029 40.5382 42.6167 36.359L41.3382 38.6492ZM51.2193 56.3566C51.2193 62.9554 48.795 68.5202 43.8966 73.1266L45.6935 75.0374C51.1094 69.9443 53.8422 63.6921 53.8422 56.3566H51.2193ZM43.8966 73.1266C38.9938 77.7372 33.0525 80.0451 25.9939 80.0451V82.668C33.6893 82.668 40.2821 80.1262 45.6935 75.0374L43.8966 73.1266ZM25.9939 80.0451C20.6764 80.0451 15.93 78.973 11.7274 76.8554L10.5472 79.1978C15.1561 81.5201 20.314 82.668 25.9939 82.668V80.0451ZM11.7332 76.8584C6.89939 74.3928 3.71703 70.9399 2.06957 66.5044L-0.389246 67.4177C1.51521 72.5451 5.19761 76.4692 10.5414 79.1949L11.7332 76.8584ZM2.06572 66.4942C1.85307 65.936 1.7418 65.3268 1.7418 64.6557H-0.881148C-0.881148 65.624 -0.719186 66.5517 -0.385394 67.4279L2.06572 66.4942ZM1.7418 64.6557C1.7418 63.1533 2.32059 61.9305 3.56858 60.9044L1.90273 58.8784C0.0769482 60.3796 -0.881148 62.333 -0.881148 64.6557H1.7418ZM3.56083 60.9107C4.76195 59.9384 6.11005 59.4611 7.65369 59.4611V56.8381C5.5088 56.8381 3.57821 57.522 1.91048 58.8721L3.56083 60.9107ZM7.65369 59.4611C9.397 59.4611 10.7348 60.1245 11.7837 61.5046L13.872 59.9175C12.3253 57.8823 10.2137 56.8381 7.65369 56.8381V59.4611ZM11.7758 61.494C12.8711 62.966 13.7417 64.1126 14.3845 64.9291C14.7053 65.3365 14.9758 65.67 15.1928 65.924C15.3833 66.1469 15.6025 66.3931 15.7996 66.5507L17.4381 64.5025C17.4645 64.5236 17.3976 64.4666 17.1868 64.22C17.0025 64.0043 16.7565 63.7017 16.4454 63.3066C15.8245 62.5179 14.9704 61.3933 13.88 59.9281L11.7758 61.494ZM15.7956 66.5475C18.2402 68.519 21.7102 69.3996 25.9939 69.3996V66.7766C22.0125 66.7766 19.2325 65.9496 17.4421 64.5058L15.7956 66.5475ZM25.9939 69.3996C29.523 69.3996 32.6506 68.3329 35.319 66.1907L33.6769 64.1453C31.4956 65.8966 28.9538 66.7766 25.9939 66.7766V69.3996ZM35.312 66.1963C38.0328 64.0423 39.4979 61.345 39.4979 58.1496H36.875C36.875 60.4186 35.8812 62.4003 33.6839 64.1398L35.312 66.1963ZM39.4979 58.1496C39.4979 53.5701 37.9396 49.8494 34.7406 47.1565C31.5955 44.509 27.0054 42.9742 21.1532 42.3977L20.896 45.008C26.485 45.5586 30.4759 46.9951 33.0514 49.1632C35.573 51.2858 36.875 54.225 36.875 58.1496H39.4979ZM21.1489 42.3973C18.7697 42.1707 17.1873 41.574 16.2181 40.7631C15.3038 39.9981 14.8053 38.9345 14.8053 37.4016H12.1824C12.1824 39.5915 12.939 41.4394 14.5349 42.7748C16.0761 44.0643 18.259 44.7569 20.9002 45.0084L21.1489 42.3973ZM14.8053 37.4016C14.8053 36.3191 15.164 35.4155 15.9084 34.6253C16.6816 33.8046 17.9221 33.0559 19.7487 32.447L18.9193 29.9587C16.8525 30.6476 15.1729 31.581 13.9993 32.8266C12.7971 34.1026 12.1824 35.6494 12.1824 37.4016H14.8053ZM19.6185 32.4831C23.3116 31.6624 26.9877 30.8246 30.6467 29.9697L30.05 27.4155C26.4003 28.2683 22.7334 29.104 19.0495 29.9226L19.6185 32.4831ZM30.7353 29.9457C33.1712 29.1934 35.1338 28.1696 36.5011 26.8024L34.6464 24.9476C33.6913 25.9028 32.1703 26.7574 29.9614 27.4395L30.7353 29.9457ZM36.5011 26.8024C37.8954 25.4081 38.6365 23.7051 38.678 21.7533L36.0556 21.6975C36.0288 22.9561 35.5746 24.0195 34.6464 24.9476L36.5011 26.8024ZM38.6778 21.7606C38.7573 18.7998 37.6037 16.4381 35.1917 14.8956C32.8891 13.4231 29.5698 12.7807 25.4303 12.7807V15.4037C29.3851 15.4037 32.1024 16.0335 33.7786 17.1054C35.3454 18.1073 36.1129 19.5622 36.0558 21.6902L38.6778 21.7606ZM25.4303 12.7807C22.4293 12.7807 19.2625 13.9328 15.9591 16.064L17.3811 18.268C20.4302 16.3008 23.1034 15.4037 25.4303 15.4037V12.7807ZM15.9675 16.0586C14.4037 17.0507 13.1209 17.7733 12.1088 18.2435C11.0523 18.7343 10.4407 18.8771 10.1639 18.8771V21.5C11.0484 21.5 12.1018 21.139 13.2139 20.6223C14.3706 20.085 15.7603 19.2963 17.3726 18.2734L15.9675 16.0586ZM10.1639 18.8771C8.57261 18.8771 7.25408 18.321 6.1334 17.1723L4.25594 19.004C5.86751 20.6558 7.86182 21.5 10.1639 21.5V18.8771ZM6.1334 17.1723C4.97971 15.9898 4.45697 14.7213 4.45697 13.3238H1.83402C1.83402 15.4782 2.67739 17.3859 4.25594 19.004L6.1334 17.1723ZM4.45697 13.3238C4.45697 12.3381 4.93762 11.204 6.22723 9.90667C7.52073 8.60548 9.53242 7.24207 12.3386 5.839L11.1655 3.49297C8.23397 4.95875 5.94239 6.47274 4.36703 8.05747C2.78779 9.64611 1.83402 11.4065 1.83402 13.3238H4.45697ZM12.3386 5.839C17.401 3.30778 21.3477 2.13525 24.252 2.13525V-0.487703C20.7356 -0.487703 16.349 0.90124 11.1655 3.49297L12.3386 5.839ZM24.252 2.13525C31.8241 2.13525 37.7646 3.76985 42.1915 6.91355L43.7102 4.77498C38.7108 1.22469 32.1855 -0.487703 24.252 -0.487703V2.13525ZM42.1879 6.91098C46.9707 10.3318 49.375 15.1773 49.375 21.623H51.9979C51.9979 14.4074 49.2452 8.73378 43.7138 4.77755L42.1879 6.91098ZM49.375 21.623C49.375 25.2098 48.6744 28.1915 47.3351 30.6209L49.6321 31.8873C51.2299 28.9889 51.9979 25.5498 51.9979 21.623H49.375ZM47.3323 30.6261C46.0329 33.0082 44.0622 34.9165 41.3638 36.345L42.5911 38.6632C45.6987 37.018 48.0654 34.7595 49.6349 31.8821L47.3323 30.6261Z" fill="#9100FF"/>
</svg>
