<svg width="26" height="17" viewBox="0 0 26 17" fill="none" xmlns="http://www.w3.org/2000/svg">
<path d="M10.0951 7.72256C10.0951 7.72256 12.4614 7.5426 12.4614 4.7087C12.4614 1.87714 10.8565 0.481319 8.40348 0.481319L0 0.468018V16.1163H8.59891C8.59891 16.1163 12.8984 16.2524 12.8984 11.4218C12.8984 11.4218 13.2142 7.72256 10.0951 7.72256ZM3.12687 2.81526H7.42633C7.42633 2.81526 8.89752 2.83951 8.89752 4.7486C8.89752 6.72733 7.42633 6.72733 7.42633 6.72733H3.12687V2.81526ZM7.81719 13.769H3.12687V9.07457H7.81719C7.81719 9.07457 10.1623 9.09882 10.1623 11.4218C10.1623 13.7448 8.15489 13.769 7.81719 13.769Z" fill="black"/>
<path d="M19.5435 4.38037C13.6704 4.38037 13.6806 10.2485 13.6806 10.2485C13.6806 10.2485 13.2897 16.1166 19.5435 16.1166C19.5435 16.1166 25.0155 16.1166 25.0155 11.4221H21.8887C21.8887 11.4221 21.8887 13.7693 19.5435 13.7693C19.5435 13.7693 17.1983 13.7693 17.1983 10.6397C17.1983 10.6397 23.4521 10.6397 25.0155 10.6397C25.0155 9.07485 25.0155 4.38037 19.5435 4.38037ZM17.1983 9.07485C17.1983 9.07485 17.1467 6.72761 19.5435 6.72761C21.9395 6.72761 21.8887 9.07485 21.8887 9.07485H17.1983Z" fill="black"/>
<path d="M22.6698 2.03296H16.416V3.59779H22.6698V2.03296Z" fill="black"/>
</svg>
