<svg width="31" height="31" viewBox="0 0 31 31" fill="none" xmlns="http://www.w3.org/2000/svg">
<path d="M15.8473 30.905C7.56843 30.905 0.830078 24.1666 0.830078 15.8878C0.830078 7.60896 7.56843 0.870605 15.8473 0.870605C24.1261 0.870605 30.8644 7.60896 30.8644 15.8878C30.8644 24.1666 24.1261 30.905 15.8473 30.905ZM15.8473 3.29273C8.9006 3.29273 3.2522 8.94113 3.2522 15.8878C3.2522 22.8344 8.9006 28.4828 15.8473 28.4828C22.7939 28.4828 28.4423 22.8344 28.4423 15.8878C28.4423 8.94113 22.7939 3.29273 15.8473 3.29273Z" fill="black"/>
<path d="M11.4881 14.4104C8.64939 14.4104 5.57813 13.9889 2.30342 13.1364C1.65429 12.9668 1.26675 12.308 1.4363 11.6589C1.60584 11.0097 2.26466 10.6222 2.91379 10.7917C12.8348 13.3689 20.6002 11.7364 25.3669 6.07829C25.798 5.56964 26.5634 5.50182 27.0721 5.93296C27.5856 6.3641 27.6485 7.12949 27.2174 7.63814C23.434 12.1288 18.086 14.4104 11.4881 14.4104Z" fill="black"/>
<path d="M5.43336 26.1624C5.15239 26.1624 4.87627 26.0655 4.64859 25.8717C4.13994 25.4358 4.08181 24.6704 4.51295 24.1617C11.5952 15.8829 20.7606 13.9161 29.6595 18.7749C30.2456 19.0946 30.4636 19.831 30.1439 20.4171C29.8242 21.0033 29.0878 21.2213 28.5017 20.9015C17.8153 15.0739 10.0402 21.4296 6.35376 25.7409C6.1164 26.0171 5.7773 26.1624 5.43336 26.1624Z" fill="black"/>
<path d="M19.8142 30.324C19.7706 30.324 19.727 30.324 19.6834 30.3191C19.0197 30.2465 18.5402 29.6506 18.6128 28.9821C19.5575 20.3206 17.3291 11.5864 11.9956 3.0121C11.6419 2.44532 11.8163 1.69931 12.3831 1.34568C12.9499 0.992047 13.6959 1.16644 14.0495 1.73322C19.6786 10.7774 22.0232 20.0348 21.0204 29.2486C20.9478 29.8686 20.4246 30.324 19.8142 30.324Z" fill="black"/>
</svg>
