<svg width="110" height="110" viewBox="0 0 110 110" fill="none" xmlns="http://www.w3.org/2000/svg">
<g clip-path="url(#clip0_6_199)">
<mask id="mask0_6_199" style="mask-type:luminance" maskUnits="userSpaceOnUse" x="0" y="0" width="110" height="110">
<path d="M0 0H110V110H0V0Z" fill="white"/>
</mask>
<g mask="url(#mask0_6_199)">
<path d="M99.0079 50.2674C98.9237 49.5876 98.5773 48.9675 98.0426 48.5394C97.5078 48.1113 96.827 47.9091 96.1452 47.9757C95.4609 48.0496 94.8339 48.3919 94.4018 48.9277C93.9697 49.4634 93.7678 50.1487 93.8405 50.8331L93.9871 52.3338H80.3602C80.211 52.3338 80.0486 52.3521 79.9045 52.3679C76.6441 52.5407 73.5592 53.8994 71.2308 56.1883C68.9024 58.4771 67.491 61.5382 67.2624 64.7952C67.2418 64.874 67.2304 64.9548 67.2283 65.0362C67.2152 65.1017 67.2152 65.1829 67.2152 65.2614V91.9233C65.6176 92.4419 63.999 92.8662 62.3517 93.1752L62.404 85.1426V16.6964L63.6507 16.9583L63.7895 16.9845L67.1157 17.9274V52.91C68.6979 51.5308 70.4855 50.4069 72.414 49.5786L72.4062 40.8571L72.3931 37.3529V20.0986C80.2582 24.0515 86.5537 30.5501 90.255 38.5367C90.7055 39.4795 91.6274 40.04 92.62 40.04C92.9965 40.0381 93.3678 39.9522 93.7069 39.7886C94.3292 39.4995 94.8112 38.9752 95.047 38.3308C95.2828 37.6864 95.2529 36.9748 94.964 36.3524C94.1411 34.5703 93.196 32.8472 92.1355 31.1955C87.124 23.3218 79.7414 17.2432 71.0521 13.8364L70.73 13.6714L69.5933 13.2838V13.2786C66.524 12.1973 63.3443 11.4594 60.1124 11.0786H60.0129L59.7038 11.0576C59.0707 11.0643 58.4615 11.3006 57.9894 11.7225C57.5174 12.1445 57.2145 12.7235 57.1371 13.3519V96.6638C57.2144 97.2928 57.5186 97.8719 57.9926 98.2925C58.4667 98.713 59.078 98.946 59.7117 98.9476L60.0155 98.9345C70.4462 97.752 80.1056 92.8633 87.2352 85.1583C90.4012 81.756 93.0096 77.8747 94.964 73.6581C95.2522 73.0356 95.2817 72.3242 95.046 71.6801C94.8103 71.0359 94.3287 70.5115 93.7069 70.2219C93.3975 70.0779 93.0628 69.9963 92.7219 69.9817C92.381 69.9671 92.0406 70.0198 91.72 70.1368C91.3995 70.2538 91.1051 70.4327 90.8537 70.6635C90.6024 70.8943 90.3989 71.1723 90.255 71.4817C89.5253 73.0454 88.6941 74.5598 87.7669 76.0152C85.2713 79.943 82.0901 83.3903 78.375 86.1929C76.5003 87.6135 74.4988 88.8584 72.3957 89.9119V65.725C72.3978 63.5517 73.2622 61.4681 74.7992 59.9316C76.3362 58.3951 78.4201 57.5314 80.5933 57.53C80.6274 57.53 80.685 57.5195 80.719 57.5195H93.9871L93.9322 58.3314C93.8991 58.6891 93.9416 59.0497 94.0567 59.3899C94.1718 59.7302 94.3571 60.0424 94.6005 60.3066C94.8439 60.5707 95.14 60.7808 95.4697 60.9233C95.7994 61.0658 96.1554 61.1375 96.5145 61.1338C97.1628 61.1358 97.7883 60.895 98.2677 60.4586C98.7472 60.0223 99.0458 59.4222 99.1048 58.7767L99.1833 57.5798C99.3329 55.1418 99.2725 52.6955 99.0079 50.2674ZM55 0C24.6688 0 0 24.6714 0 55C0 85.3286 24.6662 110 55 110C85.3338 110 110 85.3286 110 55C110 24.6714 85.3338 0 55 0ZM55 104.817C27.534 104.817 5.18048 82.466 5.18048 55.0026C5.18048 27.5393 27.534 5.18833 55.0026 5.18833C82.4712 5.18833 104.82 27.5419 104.82 55.0026C104.82 82.4633 82.4764 104.817 55 104.817ZM52.7398 96.4124C52.7467 96.5913 52.7344 96.7704 52.7031 96.9467C52.5926 97.5423 52.2774 98.0805 51.8121 98.4684C51.3467 98.8562 50.7605 99.0693 50.1548 99.0707C50.0526 99.0707 49.9505 99.0707 49.8588 99.055C46.2186 98.6366 42.6448 97.7656 39.2202 96.4622C38.7282 96.2757 38.3046 95.9437 38.0061 95.5104C37.7075 95.0771 37.5482 94.5631 37.5493 94.0369V60.6441C39.3854 59.9664 41.1279 59.0582 42.735 57.9412V92.2114C44.3165 92.7327 45.9296 93.1526 47.5645 93.4686L47.554 89.3148V16.9583C45.906 17.2739 44.2804 17.6974 42.6879 18.226L42.7245 25.2581L42.7324 43.5783C42.7309 43.7234 42.716 43.8681 42.6879 44.0105C42.715 44.145 42.729 44.2818 42.7298 44.419C42.7263 47.967 41.3155 51.3687 38.807 53.8777C36.2984 56.3868 32.897 57.7982 29.349 57.8024H16.6467C16.4555 57.8024 16.2643 57.7762 16.081 57.7369C16.2048 59.6032 16.4595 61.4586 16.8431 63.2893C17.798 67.8571 19.5766 72.2128 22.0917 76.1436C22.339 76.5354 22.477 76.9864 22.4912 77.4496C22.5054 77.9128 22.3953 78.3713 22.1724 78.7776C21.9495 79.1839 21.6218 79.523 21.2235 79.7599C20.8252 79.9968 20.3708 80.1227 19.9074 80.1245C19.4709 80.1245 19.0414 80.0152 18.6581 79.8066C18.2747 79.598 17.9497 79.2967 17.7126 78.9302C13.1938 71.8466 10.7981 63.617 10.8088 55.2148C10.8088 46.7736 13.1974 38.5733 17.7126 31.4914C18.0825 30.9107 18.6679 30.5008 19.3401 30.3517C20.0122 30.2026 20.7161 30.3267 21.2968 30.6965C21.8775 31.0664 22.2875 31.6518 22.4365 32.324C22.5856 32.9962 22.4615 33.7 22.0917 34.2807C18.5609 39.8079 16.4926 46.1417 16.081 52.6874C16.2664 52.6436 16.4561 52.6208 16.6467 52.6193H29.349C31.5219 52.6158 33.6047 51.7509 35.1409 50.2143C36.6771 48.6776 37.5413 46.5945 37.544 44.4217C37.544 44.275 37.5702 44.1336 37.5886 43.9948C37.5702 43.8638 37.5493 43.725 37.5493 43.581L37.5414 22.5605V16.4057C37.5414 16.0836 37.6043 15.751 37.7248 15.4445C37.8553 15.1077 38.0545 14.8017 38.3097 14.5461C38.5649 14.2904 38.8705 14.0907 39.2071 13.9595C42.6272 12.6562 46.1966 11.7851 49.8326 11.3667C51.3779 11.2043 52.7345 12.4143 52.7345 13.9438V55.2698L52.7371 96.415L52.7398 96.4124Z" fill="white"/>
</g>
</g>
<defs>
<clipPath id="clip0_6_199">
<rect width="110" height="110" fill="white"/>
</clipPath>
</defs>
</svg>
