<svg width="26" height="26" viewBox="0 0 26 26" fill="none" xmlns="http://www.w3.org/2000/svg">
<path d="M8.839 13.0641C8.839 10.7609 10.705 8.89339 13.0075 8.89339C15.31 8.89339 17.177 10.7609 17.177 13.0641C17.177 15.3672 15.31 17.2348 13.0075 17.2348C10.705 17.2348 8.839 15.3672 8.839 13.0641ZM6.58505 13.0641C6.58505 16.6122 9.46037 19.4884 13.0075 19.4884C16.5546 19.4884 19.43 16.6122 19.43 13.0641C19.43 9.51594 16.5546 6.63978 13.0075 6.63978C9.46037 6.63978 6.58505 9.51594 6.58505 13.0641ZM18.1833 6.38506C18.1832 6.68199 18.2711 6.9723 18.4359 7.21926C18.6007 7.46621 18.8351 7.65874 19.1093 7.77248C19.3835 7.88622 19.6853 7.91607 19.9764 7.85826C20.2676 7.80045 20.5351 7.65757 20.7451 7.44769C20.9551 7.2378 21.0981 6.97035 21.1561 6.67914C21.2142 6.38794 21.1846 6.08606 21.0711 5.81168C20.9576 5.5373 20.7653 5.30275 20.5186 5.13768C20.2718 4.97261 19.9817 4.88444 19.6848 4.88433H19.6842C19.2863 4.88451 18.9047 5.04266 18.6233 5.32405C18.3419 5.60543 18.1836 5.98704 18.1833 6.38506ZM7.95447 23.2478C6.73504 23.1923 6.07224 22.9891 5.63178 22.8175C5.04783 22.59 4.63118 22.3192 4.19311 21.8816C3.75505 21.444 3.48389 21.0277 3.25755 20.4435C3.08585 20.0032 2.88273 19.34 2.8273 18.1202C2.76666 16.8014 2.75455 16.4053 2.75455 13.0642C2.75455 9.72312 2.76766 9.32807 2.8273 8.0082C2.88283 6.78842 3.08745 6.12653 3.25755 5.68484C3.48489 5.10072 3.75565 4.68395 4.19311 4.24576C4.63058 3.80757 5.04683 3.53633 5.63178 3.30993C6.07204 3.13817 6.73504 2.93499 7.95447 2.87954C9.27286 2.81889 9.6689 2.80678 13.0075 2.80678C16.3461 2.80678 16.7425 2.81989 18.062 2.87954C19.2815 2.93509 19.9432 3.13978 20.3847 3.30993C20.9687 3.53633 21.3853 3.80817 21.8234 4.24576C22.2614 4.68335 22.5316 5.10072 22.7589 5.68484C22.9307 6.12523 23.1338 6.78842 23.1892 8.0082C23.2498 9.32807 23.2619 9.72312 23.2619 13.0642C23.2619 16.4053 23.2498 16.8003 23.1892 18.1202C23.1337 19.34 22.9296 20.003 22.7589 20.4435C22.5316 21.0277 22.2608 21.4444 21.8234 21.8816C21.3859 22.3188 20.9687 22.59 20.3847 22.8175C19.9445 22.9892 19.2815 23.1924 18.062 23.2478C16.7436 23.3085 16.3476 23.3206 13.0075 23.3206C9.6674 23.3206 9.27246 23.3085 7.95447 23.2478ZM7.85091 0.628746C6.51941 0.6894 5.60956 0.900587 4.81499 1.20986C3.99209 1.52925 3.29548 1.95773 2.59936 2.65294C1.90324 3.34816 1.47599 4.04608 1.15669 4.86921C0.847508 5.66452 0.636382 6.57413 0.575745 7.90601C0.514108 9.23999 0.5 9.66647 0.5 13.0641C0.5 16.4617 0.514108 16.8882 0.575745 18.2222C0.636382 19.5542 0.847508 20.4637 1.15669 21.259C1.47599 22.0816 1.90334 22.7803 2.59936 23.4752C3.29538 24.1702 3.99209 24.598 4.81499 24.9183C5.61106 25.2276 6.51941 25.4388 7.85091 25.4994C9.18521 25.5601 9.61086 25.5752 13.0075 25.5752C16.4041 25.5752 16.8305 25.5611 18.1641 25.4994C19.4957 25.4388 20.4049 25.2276 21.2 24.9183C22.0224 24.598 22.7195 24.1705 23.4156 23.4752C24.1118 22.78 24.5381 22.0816 24.8583 21.259C25.1675 20.4637 25.3796 19.5541 25.4393 18.2222C25.4999 16.8872 25.514 16.4617 25.514 13.0641C25.514 9.66647 25.4999 9.23999 25.4393 7.90601C25.3786 6.57403 25.1675 5.66402 24.8583 4.86921C24.5381 4.04658 24.1107 3.34926 23.4156 2.65294C22.7206 1.95663 22.0224 1.52925 21.201 1.20986C20.4049 0.900587 19.4956 0.688399 18.1651 0.628746C16.8315 0.568092 16.4051 0.552979 13.0085 0.552979C9.61186 0.552979 9.18521 0.567091 7.85091 0.628746Z" fill="black"/>
</svg>
