<svg width="22" height="21" viewBox="0 0 22 21" fill="none" xmlns="http://www.w3.org/2000/svg">
<path d="M5.74777 20.1318V6.62537H1.26243V20.1318H5.74824H5.74777ZM3.50604 4.78161C5.06984 4.78161 6.04342 3.74448 6.04342 2.44835C6.01415 1.12269 5.06984 0.114502 3.53578 0.114502C2.00066 0.114502 0.998047 1.12269 0.998047 2.44823C0.998047 3.74436 1.97127 4.7815 3.47665 4.7815H3.50569L3.50604 4.78161ZM8.23048 20.1318H12.7155V12.59C12.7155 12.1869 12.7447 11.7827 12.8632 11.4948C13.1873 10.6879 13.9253 9.85268 15.1647 9.85268C16.7873 9.85268 17.4367 11.0911 17.4367 12.907V20.1318H21.9216V12.3876C21.9216 8.2392 19.7092 6.30872 16.7582 6.30872C14.3389 6.30872 13.2763 7.66216 12.686 8.58398H12.7158V6.62584H8.23071C8.28925 7.8929 8.23036 20.1323 8.23036 20.1323L8.23048 20.1318Z" fill="black"/>
</svg>
