<svg width="228" height="25" viewBox="0 0 228 25" fill="none" xmlns="http://www.w3.org/2000/svg">
<path d="M10.53 1.58H14.19L17.01 12.41L19.56 1.58H24.42L19.56 20H15.15L12.3 9.2L9.42 20H5.01L0.18 1.58H5.1L7.68 12.41L10.53 1.58ZM25.8694 20V0.499999H30.5794V7.67C31.4594 6.69 32.6694 6.2 34.2094 6.2C35.6894 6.2 36.8494 6.65 37.6894 7.55C38.5494 8.43 38.9794 9.63 38.9794 11.15V20H34.2994V12.29C34.2994 11.71 34.1494 11.25 33.8494 10.91C33.5494 10.55 33.1094 10.37 32.5294 10.37C32.0494 10.37 31.6294 10.5 31.2694 10.76C30.9294 11.02 30.6994 11.38 30.5794 11.84V20H25.8694ZM46.136 6.5V20H41.426V6.5H46.136ZM46.466 2.84C46.466 3.58 46.206 4.19 45.686 4.67C45.166 5.13 44.536 5.36 43.796 5.36C43.056 5.36 42.426 5.13 41.906 4.67C41.386 4.19 41.126 3.58 41.126 2.84C41.126 2.08 41.386 1.47 41.906 1.01C42.426 0.53 43.056 0.29 43.796 0.29C44.536 0.29 45.166 0.53 45.686 1.01C46.206 1.47 46.466 2.08 46.466 2.84ZM49.6816 15.35V10.16H47.7016V6.5H49.6816V2.78H54.3316V6.5H57.1516V10.16H54.3316V14.66C54.3316 15.66 54.8116 16.16 55.7716 16.16C56.3116 16.16 56.8116 16.06 57.2716 15.86V19.85C56.6316 20.13 55.7616 20.27 54.6616 20.27C51.3416 20.27 49.6816 18.63 49.6816 15.35ZM67.515 15.29H71.865C71.625 16.85 70.945 18.08 69.825 18.98C68.705 19.86 67.275 20.3 65.535 20.3C63.475 20.3 61.815 19.65 60.555 18.35C59.295 17.05 58.665 15.35 58.665 13.25C58.665 11.17 59.305 9.48 60.585 8.18C61.865 6.86 63.485 6.2 65.445 6.2C67.485 6.2 69.075 6.82 70.215 8.06C71.355 9.3 71.925 10.94 71.925 12.98V14.15H63.195C63.355 15.81 64.135 16.64 65.535 16.64C66.595 16.64 67.255 16.19 67.515 15.29ZM65.445 9.86C64.305 9.86 63.585 10.51 63.285 11.81H67.365C67.325 11.23 67.135 10.76 66.795 10.4C66.455 10.04 66.005 9.86 65.445 9.86ZM97.117 10.79C97.117 13.55 96.277 15.83 94.597 17.63C92.917 19.41 90.747 20.3 88.087 20.3C85.447 20.3 83.287 19.41 81.607 17.63C79.947 15.83 79.117 13.55 79.117 10.79C79.117 8.01 79.947 5.73 81.607 3.95C83.287 2.17 85.447 1.28 88.087 1.28C90.747 1.28 92.917 2.17 94.597 3.95C96.277 5.73 97.117 8.01 97.117 10.79ZM91.087 14.63C91.867 13.65 92.257 12.37 92.257 10.79C92.257 9.21 91.867 7.94 91.087 6.98C90.327 6 89.327 5.51 88.087 5.51C86.847 5.51 85.847 5.99 85.087 6.95C84.347 7.91 83.977 9.19 83.977 10.79C83.977 12.39 84.347 13.67 85.087 14.63C85.847 15.59 86.847 16.07 88.087 16.07C89.327 16.07 90.327 15.59 91.087 14.63ZM98.9944 20V6.5H103.704V7.67C104.584 6.69 105.794 6.2 107.334 6.2C108.814 6.2 109.974 6.65 110.814 7.55C111.674 8.43 112.104 9.63 112.104 11.15V20H107.424V12.29C107.424 11.71 107.274 11.25 106.974 10.91C106.674 10.55 106.234 10.37 105.654 10.37C105.174 10.37 104.754 10.5 104.394 10.76C104.054 11.02 103.824 11.38 103.704 11.84V20H98.9944ZM120.977 24.77H116.327L118.307 19.67L113.267 6.5H118.157L120.737 14.18L123.257 6.5H127.937L120.977 24.77ZM142.605 6.5L138.075 13.1L142.815 20H137.715L135.405 16.49L133.095 20H128.235L132.945 13.13L128.445 6.5H133.515L135.615 9.74L137.745 6.5H142.605ZM149.635 15.2H152.035C152.735 17.24 154.295 18.26 156.715 18.26C157.935 18.26 158.915 17.98 159.655 17.42C160.415 16.84 160.795 16.05 160.795 15.05C160.795 14.31 160.565 13.71 160.105 13.25C159.645 12.77 158.895 12.4 157.855 12.14L154.555 11.27C151.615 10.51 150.145 8.93 150.145 6.53C150.145 4.99 150.715 3.74 151.855 2.78C152.995 1.8 154.445 1.31 156.205 1.31C158.065 1.31 159.565 1.75 160.705 2.63C161.845 3.49 162.595 4.67 162.955 6.17H160.585C159.925 4.27 158.465 3.32 156.205 3.32C155.085 3.32 154.165 3.6 153.445 4.16C152.745 4.7 152.395 5.43 152.395 6.35C152.395 7.11 152.635 7.71 153.115 8.15C153.595 8.57 154.335 8.91 155.335 9.17L158.485 9.98C161.545 10.76 163.075 12.41 163.075 14.93C163.075 16.57 162.475 17.87 161.275 18.83C160.095 19.79 158.575 20.27 156.715 20.27C154.855 20.27 153.295 19.83 152.035 18.95C150.775 18.05 149.975 16.8 149.635 15.2ZM166.79 16.64V8.6H164.63V6.68H166.79V3.17H169.04V6.68H172.25V8.6H169.04V16.4C169.04 17.64 169.63 18.26 170.81 18.26C171.43 18.26 172.01 18.08 172.55 17.72V19.82C171.99 20.12 171.29 20.27 170.45 20.27C169.33 20.27 168.44 19.97 167.78 19.37C167.12 18.75 166.79 17.84 166.79 16.64ZM186.243 6.68V20H183.963V18.32C183.563 18.88 183.023 19.35 182.343 19.73C181.663 20.09 180.913 20.27 180.093 20.27C178.613 20.27 177.463 19.83 176.643 18.95C175.843 18.07 175.443 16.89 175.443 15.41V6.68H177.723V15.05C177.723 16.03 177.963 16.8 178.443 17.36C178.923 17.92 179.653 18.2 180.633 18.2C181.393 18.2 182.073 17.97 182.673 17.51C183.293 17.05 183.723 16.45 183.963 15.71V6.68H186.243ZM199.032 20V18.44C198.672 18.96 198.152 19.4 197.472 19.76C196.792 20.1 196.062 20.27 195.282 20.27C193.402 20.27 191.932 19.61 190.872 18.29C189.812 16.97 189.282 15.32 189.282 13.34C189.282 11.38 189.812 9.74 190.872 8.42C191.932 7.08 193.402 6.41 195.282 6.41C196.062 6.41 196.792 6.59 197.472 6.95C198.152 7.29 198.672 7.72 199.032 8.24V0.499999H201.312V20H199.032ZM199.032 16.04V10.64C198.692 9.96 198.212 9.43 197.592 9.05C196.992 8.65 196.332 8.45 195.612 8.45C194.372 8.45 193.382 8.91 192.642 9.83C191.922 10.73 191.562 11.9 191.562 13.34C191.562 14.78 191.922 15.96 192.642 16.88C193.382 17.78 194.372 18.23 195.612 18.23C196.332 18.23 196.992 18.04 197.592 17.66C198.212 17.26 198.692 16.72 199.032 16.04ZM207.551 6.68V20H205.301V6.68H207.551ZM207.431 1.64C207.731 1.92 207.881 2.26 207.881 2.66C207.881 3.06 207.731 3.4 207.431 3.68C207.151 3.96 206.811 4.1 206.411 4.1C206.011 4.1 205.671 3.96 205.391 3.68C205.111 3.4 204.971 3.06 204.971 2.66C204.971 2.26 205.111 1.92 205.391 1.64C205.671 1.36 206.011 1.22 206.411 1.22C206.811 1.22 207.151 1.36 207.431 1.64ZM221.141 8.36C222.281 9.64 222.851 11.3 222.851 13.34C222.851 15.38 222.281 17.05 221.141 18.35C220.021 19.63 218.551 20.27 216.731 20.27C214.911 20.27 213.431 19.63 212.291 18.35C211.171 17.05 210.611 15.38 210.611 13.34C210.611 11.3 211.171 9.64 212.291 8.36C213.431 7.06 214.911 6.41 216.731 6.41C218.551 6.41 220.021 7.06 221.141 8.36ZM219.521 16.94C220.221 16.02 220.571 14.82 220.571 13.34C220.571 11.86 220.221 10.67 219.521 9.77C218.841 8.85 217.911 8.39 216.731 8.39C215.551 8.39 214.611 8.85 213.911 9.77C213.231 10.67 212.891 11.86 212.891 13.34C212.891 14.82 213.231 16.02 213.911 16.94C214.611 17.84 215.551 18.29 216.731 18.29C217.911 18.29 218.841 17.84 219.521 16.94ZM224.916 19.7C224.616 19.38 224.466 18.99 224.466 18.53C224.466 18.07 224.616 17.68 224.916 17.36C225.236 17.04 225.626 16.88 226.086 16.88C226.526 16.88 226.896 17.04 227.196 17.36C227.516 17.68 227.676 18.07 227.676 18.53C227.676 18.99 227.516 19.38 227.196 19.7C226.896 20 226.526 20.15 226.086 20.15C225.626 20.15 225.236 20 224.916 19.7Z" fill="black"/>
</svg>
