<svg width="24" height="21" viewBox="0 0 24 21" fill="none" xmlns="http://www.w3.org/2000/svg">
<path d="M1.91009 9.11435C1.91009 9.11435 12.0824 4.82993 15.6104 3.32128C16.9628 2.71787 21.5492 0.786789 21.5492 0.786789C21.5492 0.786789 23.666 -0.0579842 23.4896 1.99369C23.4307 2.83855 22.9603 5.79538 22.49 8.99366C21.7843 13.5195 21.02 18.4677 21.02 18.4677C21.02 18.4677 20.9024 19.8557 19.9028 20.0971C18.9032 20.3384 17.2568 19.2523 16.9628 19.0109C16.7275 18.8299 12.5528 16.1143 11.024 14.7867C10.6124 14.4247 10.142 13.7006 11.0828 12.8557C13.1996 10.8644 15.728 8.39026 17.2568 6.82131C17.9624 6.09713 18.6679 4.4075 15.728 6.45918C11.5532 9.41609 7.43726 12.1919 7.43726 12.1919C7.43726 12.1919 6.49644 12.7954 4.73247 12.2522C2.96842 11.7092 0.910434 10.985 0.910434 10.985C0.910434 10.985 -0.500675 10.0799 1.91009 9.11435Z" fill="black"/>
</svg>
