<svg width="19" height="13" viewBox="0 0 19 13" fill="none" xmlns="http://www.w3.org/2000/svg">
<g filter="url(#filter0_f_1_2955)">
<path fill-rule="evenodd" clip-rule="evenodd" d="M16.4368 6.27907C15.7034 5.00872 14.6516 3.95141 13.3851 3.21133C12.1186 2.47126 10.6812 2.07396 9.21436 2.0586C7.74757 2.04324 6.30209 2.41034 5.02038 3.12374C3.73867 3.83713 2.66497 4.87218 1.90509 6.12689L1.85536 6.09677L1.04973 5.60886L1 5.57874L1.00067 5.57764C1.174 5.29153 1.36183 5.01557 1.56317 4.75072C2.35511 3.70897 3.35608 2.83908 4.50577 2.19916C5.94814 1.39635 7.5748 0.983235 9.22544 1.00052C10.8761 1.01781 12.4937 1.4649 13.919 2.29774C15.055 2.96159 16.0375 3.85226 16.8075 4.91036C17.0035 5.17972 17.1857 5.45992 17.3532 5.75L17.3029 5.77907L16.4872 6.25L16.4368 6.27907ZM11.6885 8.125C11.6885 9.54023 10.5412 10.6875 9.12596 10.6875C7.71073 10.6875 6.56346 9.54023 6.56346 8.125C6.56346 6.70977 7.71073 5.5625 9.12596 5.5625C10.5412 5.5625 11.6885 6.70977 11.6885 8.125ZM12.6885 8.125C12.6885 10.0925 11.0935 11.6875 9.12596 11.6875C7.15845 11.6875 5.56346 10.0925 5.56346 8.125C5.56346 6.15749 7.15845 4.5625 9.12596 4.5625C11.0935 4.5625 12.6885 6.15749 12.6885 8.125Z" fill="white"/>
</g>
<path fill-rule="evenodd" clip-rule="evenodd" d="M16.4368 6.27907C15.7034 5.00872 14.6516 3.95141 13.3851 3.21133C12.1186 2.47126 10.6812 2.07396 9.21436 2.0586C7.74757 2.04324 6.30209 2.41034 5.02038 3.12374C3.73867 3.83713 2.66497 4.87218 1.90509 6.12689L1.85536 6.09677L1.04973 5.60886L1 5.57874L1.00067 5.57764C1.174 5.29153 1.36183 5.01557 1.56317 4.75072C2.35511 3.70897 3.35608 2.83908 4.50577 2.19916C5.94814 1.39635 7.5748 0.983235 9.22544 1.00052C10.8761 1.01781 12.4937 1.4649 13.919 2.29774C15.055 2.96159 16.0375 3.85226 16.8075 4.91036C17.0035 5.17972 17.1857 5.45992 17.3532 5.75L17.3029 5.77907L16.4872 6.25L16.4368 6.27907ZM11.6885 8.125C11.6885 9.54023 10.5412 10.6875 9.12596 10.6875C7.71073 10.6875 6.56346 9.54023 6.56346 8.125C6.56346 6.70977 7.71073 5.5625 9.12596 5.5625C10.5412 5.5625 11.6885 6.70977 11.6885 8.125ZM12.6885 8.125C12.6885 10.0925 11.0935 11.6875 9.12596 11.6875C7.15845 11.6875 5.56346 10.0925 5.56346 8.125C5.56346 6.15749 7.15845 4.5625 9.12596 4.5625C11.0935 4.5625 12.6885 6.15749 12.6885 8.125Z" fill="white"/>
<defs>
<filter id="filter0_f_1_2955" x="0" y="0" width="18.3516" height="12.6875" filterUnits="userSpaceOnUse" color-interpolation-filters="sRGB">
<feFlood flood-opacity="0" result="BackgroundImageFix"/>
<feBlend mode="normal" in="SourceGraphic" in2="BackgroundImageFix" result="shape"/>
<feGaussianBlur stdDeviation="0.5" result="effect1_foregroundBlur_1_2955"/>
</filter>
</defs>
</svg>
