<svg width="32" height="24" viewBox="0 0 32 24" fill="none" xmlns="http://www.w3.org/2000/svg">
<g clip-path="url(#clip0_35_15591)">
<path d="M2.25391 21V20C2.25391 18.1435 3.20651 16.363 4.90215 15.0503C6.59779 13.7375 8.89757 13 11.2956 13C13.6936 13 15.9934 13.7375 17.6889 15.0503C19.3846 16.363 20.3372 18.1435 20.3372 20V21" stroke="#090A0B" stroke-width="1.5" stroke-linecap="square"/>
<path d="M17.7539 15C17.7539 13.6739 18.4344 12.4021 19.6456 11.4645C20.8566 10.5268 22.4994 10 24.2122 10C25.0603 10 25.9002 10.1293 26.6837 10.3806C27.4672 10.6319 28.1792 11.0002 28.7789 11.4645C29.3786 11.9288 29.8544 12.48 30.179 13.0866C30.5036 13.6932 30.6706 14.3434 30.6706 15V15.5" stroke="#090A0B" stroke-width="1.5" stroke-linecap="square"/>
<path d="M11.2956 13C12.6659 13 13.98 12.5786 14.9489 11.8284C15.9179 11.0783 16.4622 10.0609 16.4622 9C16.4622 7.93913 15.9179 6.92172 14.9489 6.17157C13.98 5.42143 12.6659 5 11.2956 5C9.92528 5 8.61113 5.42143 7.64218 6.17157C6.67325 6.92172 6.12891 7.93913 6.12891 9C6.12891 10.0609 6.67325 11.0783 7.64218 11.8284C8.61113 12.5786 9.92528 13 11.2956 13ZM24.2122 10C25.2399 10 26.2256 9.6839 26.9523 9.1213C27.6789 8.55871 28.0872 7.79565 28.0872 7C28.0872 6.20435 27.6789 5.44129 26.9523 4.87868C26.2256 4.31607 25.2399 4 24.2122 4C23.1846 4 22.1989 4.31607 21.4722 4.87868C20.7455 5.44129 20.3372 6.20435 20.3372 7C20.3372 7.79565 20.7455 8.55871 21.4722 9.1213C22.1989 9.6839 23.1846 10 24.2122 10Z" stroke="#090A0B" stroke-width="1.5" stroke-linecap="square"/>
</g>
<defs>
<clipPath id="clip0_35_15591">
<rect width="31" height="24" fill="white" transform="translate(0.960938)"/>
</clipPath>
</defs>
</svg>
