<svg width="32" height="24" viewBox="0 0 32 24" fill="none" xmlns="http://www.w3.org/2000/svg">
<path d="M29.376 8.862C29.3804 10.4007 28.6147 11.881 27.2396 12.992C24.0867 15.523 21.0279 18.162 17.7587 20.6C17.0082 21.15 15.8187 21.13 15.1018 20.555L5.67906 12.993C2.83094 10.707 2.83094 7.017 5.67906 4.732C6.3522 4.185 7.16182 3.74952 8.05882 3.45197C8.95581 3.15442 9.92153 3.001 10.8974 3.001C11.8733 3.001 12.839 3.15442 13.736 3.45197C14.633 3.74952 15.4426 4.185 16.1158 4.732L16.4594 5.006L16.8017 4.732C17.476 4.18629 18.2859 3.75161 19.1826 3.454C20.0793 3.15639 21.0443 3.00197 22.02 3C23.9833 3 25.86 3.624 27.2382 4.732C28.6138 5.84284 29.38 7.32311 29.376 8.862Z" stroke="#090A0B" stroke-width="1.5"/>
</svg>
