<svg width="32" height="24" viewBox="0 0 32 24" fill="none" xmlns="http://www.w3.org/2000/svg">
<g clip-path="url(#clip0_35_15601)">
<path d="M22.9206 10H26.7956M26.7956 10H30.6706M26.7956 10V7M26.7956 10V13M2.25391 20V19C2.25391 17.1435 3.20651 15.363 4.90215 14.0503C6.59779 12.7375 8.89757 12 11.2956 12M11.2956 12C13.6936 12 15.9934 12.7375 17.6889 14.0503C19.3846 15.363 20.3372 17.1435 20.3372 19V20M11.2956 12C12.6659 12 13.98 11.5786 14.9489 10.8284C15.9179 10.0783 16.4622 9.06087 16.4622 8C16.4622 6.93913 15.9179 5.92172 14.9489 5.17157C13.98 4.42143 12.6659 4 11.2956 4C9.92528 4 8.61113 4.42143 7.64218 5.17157C6.67325 5.92172 6.12891 6.93913 6.12891 8C6.12891 9.06087 6.67325 10.0783 7.64218 10.8284C8.61113 11.5786 9.92528 12 11.2956 12Z" stroke="#090A0B" stroke-width="1.5" stroke-linecap="square"/>
</g>
<defs>
<clipPath id="clip0_35_15601">
<rect width="31" height="24" fill="white" transform="translate(0.960938)"/>
</clipPath>
</defs>
</svg>
