<svg width="66" height="80" viewBox="0 0 66 80" fill="none" xmlns="http://www.w3.org/2000/svg">
	<path d="M65.21 69.9494C65.1453 69.3674 64.6609 68.9227 64.0756 68.9075C64.0204 68.9061 62.027 68.855 58.7939 68.7899C58.82 66.018 58.6418 62.9756 58.6329 62.8295C58.5972 62.2238 58.1047 61.7456 57.4981 61.7275C57.4445 61.726 55.062 61.656 51.384 61.5775C50.6503 55.7939 48.984 51.0075 46.1695 46.5874C45.8218 46.0416 45.0975 45.8806 44.5517 46.2283C44.0058 46.576 43.8451 47.3002 44.1926 47.8461C46.7589 51.8766 48.3033 56.2533 49.0142 61.5295C44.5137 61.4438 38.7395 61.3627 32.9997 61.3627C31.7495 61.3627 30.4376 61.3664 29.1003 61.3741C28.4531 61.3777 27.9315 61.9053 27.9351 62.5527C27.9387 63.1975 28.4628 63.7178 29.1068 63.7178H29.1137C30.4465 63.7102 31.7539 63.7064 32.9997 63.7064C42.9903 63.7064 53.0911 63.953 56.3475 64.0402C56.3984 65.1725 56.4651 67.0278 56.4503 68.7444C50.4575 68.633 41.6972 68.5053 32.9998 68.5053C24.3025 68.5053 15.542 68.633 9.54935 68.7444C9.5345 67.0278 9.60107 65.1725 9.65216 64.04C11.7447 63.9841 16.6617 63.8617 22.5292 63.7824C23.1764 63.7736 23.6939 63.2419 23.685 62.5947C23.6762 61.9475 23.1428 61.4249 22.4973 61.4389C20.2342 61.4696 18.1123 61.5066 16.2379 61.5438C16.2818 58.802 15.7909 55.5383 15.2329 51.8374C14.2567 45.3624 13.1503 38.0235 14.557 31.0088C16.1679 22.9764 20.8348 16.9775 28.8247 12.6694C29.2172 12.4578 29.4554 12.0417 29.4397 11.5961C29.4392 11.5838 29.4184 10.3163 30.2423 8.93971C31.2579 7.24252 33.0767 6.13283 35.657 5.63252L36.4233 12.8591C36.4631 13.2347 36.6819 13.5685 37.0106 13.7549C37.0953 13.803 45.4387 18.5811 51.6429 25.8216C51.6318 26.8545 51.4597 29.7794 49.9498 31.783C48.9661 31.5192 47.0072 30.8681 45.279 29.5321C44.9823 29.3028 44.5942 29.2295 44.2345 29.3339C44.1465 29.3596 35.3759 31.8514 28.162 28.6356C27.5711 28.3722 26.8779 28.6378 26.6145 29.2289C26.3511 29.82 26.6167 30.513 27.2078 30.7764C29.6481 31.8641 32.21 32.3721 34.6036 32.5516C34.9808 36.3452 37.2472 39.0439 39.837 42.1256C40.2318 42.5955 40.6403 43.0813 41.05 43.5808C41.2817 43.8633 41.6179 44.0094 41.9567 44.0094C42.2183 44.0094 42.4814 43.9222 42.6993 43.7436C43.1997 43.333 43.2726 42.5946 42.8622 42.0942C42.4434 41.5839 42.0308 41.0927 41.6314 40.6177C39.2925 37.8345 37.3887 35.5675 36.9756 32.631C40.3726 32.6066 43.1564 32.021 44.3184 31.7349C47.062 33.6649 50.0389 34.216 50.1714 34.2397C50.5586 34.3083 50.9533 34.18 51.2245 33.8966C54.2228 30.765 53.9914 25.5461 53.9801 25.3253C53.967 25.0706 53.8712 24.8272 53.7072 24.6319C48.0303 17.8714 40.7122 13.236 38.6915 12.0241L37.8583 4.16565C37.8253 3.85487 37.6695 3.56987 37.4253 3.37455C37.1811 3.17924 36.8689 3.08893 36.5586 3.12518C31.615 3.69533 29.3014 5.94737 28.2309 7.73612C27.4795 8.99143 27.2228 10.1805 27.1372 10.9224C27.1145 10.935 27.0928 10.9481 27.0701 10.9608C26.9779 5.24924 25.3712 0.955804 25.2947 0.754866C25.1817 0.458616 24.9537 0.220804 24.6625 0.0954915C24.3715 -0.0299772 24.0418 -0.0315397 23.749 0.090179C23.4376 0.219867 16.0506 3.36362 9.9495 11.8186C9.57075 12.3433 9.68919 13.076 10.214 13.4547C10.7386 13.8333 11.4714 13.715 11.8501 13.1902C16.1692 7.20487 21.2617 4.02362 23.4989 2.82393C24.0183 4.62752 24.8495 8.22393 24.7161 12.3936C17.8901 16.8892 13.8015 22.8561 12.2589 30.5481C10.7712 37.9661 11.9103 45.5211 12.9151 52.1867C12.9973 52.7314 13.0778 53.2658 13.1553 53.7902C10.6845 54.577 8.03232 54.6639 6.72466 54.647C3.05341 40.1441 3.84091 27.7171 9.0681 17.6991C9.36747 17.1252 9.14497 16.4174 8.57122 16.118C7.99732 15.8188 7.28951 16.0411 6.99013 16.6149C1.38372 27.3599 0.60513 40.64 4.67576 56.0863C4.80294 56.5694 5.22263 56.9186 5.72076 56.9561C5.78091 56.9606 6.26435 56.995 7.02435 56.995C8.49685 56.995 11.0068 56.8653 13.4861 56.1395C13.7531 58.172 13.9262 60.007 13.8931 61.5928C10.6215 61.665 8.53638 61.7266 8.50091 61.7275C7.89435 61.7456 7.40201 62.2238 7.36607 62.8295C7.35732 62.9756 7.17919 66.0181 7.20513 68.7899C3.97201 68.855 1.97841 68.9061 1.92341 68.9075C1.3381 68.9227 0.853725 69.3674 0.789037 69.9494C0.769662 70.1235 0.320131 74.262 0.788724 78.5538C0.852474 79.1366 1.33716 79.5828 1.92341 79.598C1.95732 79.5989 5.36122 79.6864 10.4814 79.7788C11.1226 79.7939 11.6626 79.2752 11.6742 78.6281C11.6858 77.9811 11.1706 77.447 10.5236 77.4353C7.07372 77.3733 4.40529 77.3133 3.02513 77.2805C2.84044 74.8278 2.94341 72.5028 3.03263 71.2249C6.7781 71.1366 19.9617 70.8492 32.9993 70.8492C46.037 70.8492 59.2206 71.1366 62.9661 71.2249C63.0553 72.503 63.1581 74.8278 62.9736 77.2805C59.2383 77.3685 46.0458 77.6563 32.9997 77.6563C28.0354 77.6563 22.5542 77.615 16.7083 77.5341C16.7026 77.5339 16.6972 77.5339 16.6917 77.5339C16.052 77.5339 15.5292 78.048 15.5203 78.6895C15.5112 79.3369 16.0286 79.8686 16.6758 79.8777C22.5326 79.9588 28.0247 80 32.9997 80C48.36 80 63.9201 79.602 64.0756 79.598C64.6618 79.5828 65.1465 79.1367 65.2103 78.5538C65.6789 74.2619 65.2293 70.1235 65.21 69.9494Z" fill="#9E9E9E"/>
	<path d="M35.4404 18.1742C35.4404 17.5269 34.9156 17.0022 34.2681 17.0022C33.6205 17.0022 33.0957 17.5269 33.0957 18.1742C33.0957 18.8216 33.6205 19.3463 34.2681 19.3463C34.9156 19.3463 35.4404 18.8216 35.4404 18.1742Z" fill="#9E9E9E"/>
</svg>